<?xml version="1.0" encoding="utf-8"?>
<!-- Generator: Adobe Illustrator 28.0.0, SVG Export Plug-In . SVG Version: 6.00 Build 0)  -->
<svg version="1.1" id="图层_1" xmlns="http://www.w3.org/2000/svg" xmlns:xlink="http://www.w3.org/1999/xlink" x="0px" y="0px"
	 viewBox="0 0 681.9 884.6" style="enable-background:new 0 0 681.9 884.6;" xml:space="preserve">
<style type="text/css">
	.st0{fill:none;stroke:#231815;stroke-width:0.7087;stroke-linecap:round;stroke-linejoin:round;stroke-miterlimit:10;}
</style>
<g id="SPLINE">
	<path class="st0" d="M275.1,73.8c-2.7,0.4-5.7,0.7-9,0.7c-6.9,0-12.2,0.1-16.8-3.4c-2.1-1.6-3.2-3.3-4.7-5.6
		c-2.9-4.5-4.2-8.8-4.8-11.7c-11.6,0-23.1,0-34.7,0c0,3.4-0.1,10.9-0.2,20.9c0,0-0.1,11.5-3.1,29.8c-0.3,2.1-1,5.9-4,8.9
		c-2.5,2.5-5.5,3.4-7.3,3.8c0.4,11,0.7,21.9,1.1,32.9c8.3,5.4,24,14,45.5,17.1c23.4,3.4,42.2-1.5,51.8-4.6c0-10.6,0-21.2,0-31.8
		l6-5.1l-6-2.4L275.1,73.8z"/>
</g>
<g id="SPLINE_00000155125744166143592090000001427164657831880077_">
	<path class="st0" d="M125.4,214.1c-4.2,0.7-7.8,0.9-10.3,1c-6.9,0.2-10.5,0.3-14.2-1.7c-3-1.6-4.8-3.8-6.1-5.4
		c-3.9-4.8-5.2-9.9-5.7-13c-11.3,0.4-22.6,0.8-33.9,1.3c0.2,3.4,0.5,10.9,1,20.9h0l0,0c0,0-1,20.8-2.1,27.5
		c-0.5,2.8-1.6,6.9-4.6,11.7c-1.9-0.2-3.9-0.5-5.8-0.7c0,2.5-0.1,5-0.1,7.6c-3.8,0.8-7.6,1.7-11.4,2.5c1.3,10.1,2.6,20.1,3.9,30.2
		c3.5-0.2,6.9-0.5,10.4-0.7c1.4,2.5,2.8,5,4.2,7.5c1.7-2,3.3-3.9,5-5.9c2.6,1.5,6.4,3.4,11.1,5.2c11.7,4.5,21.4,5.2,26.9,5.6
		c22.6,1.6,44.1-5.1,51.4-7.6c-0.6-10.6-1.2-21.2-1.8-31.7l5.7-5.4l-6.1-2.1C137,245.2,131.2,229.7,125.4,214.1z"/>
</g>
<g id="SPLINE_00000076576543898898872890000003105294486320421821_">
	<path class="st0" d="M449.2,83.4c-5.9-0.1-12.3-0.5-19.2-1.3c-11.4-1.4-21.4-3.6-30-6.1c-0.8-2.9-1.6-5.8-2.4-8.7l-6.4,5.8
		c-7-0.9-14.2-1.8-21.6-2.5c-18.1-1.7-35.3-2.4-51.4-2.4c-0.5,21-1,41.9-1.6,62.9c23.6,1.3,50,1.5,78.6-0.4
		c20.6-1.4,39.8-3.7,57.4-6.4C451.5,110.6,450.3,97,449.2,83.4z"/>
</g>
<g id="SPLINE_00000072970891905745223790000000420371190252623763_">
	<path class="st0" d="M145.5,344.2c-8.1,0.1-16.1,0.3-24.2,0.4l-5.1-6.4l-4.2,5.1c-13.1-1.5-28.2-2.3-45-1.4
		c-9.5,0.5-18.4,1.5-26.5,2.7c0.3,12.1,1,24.6,1.9,37.6c0.7,9.6,1.6,18.9,2.5,28c16.9,0.1,34.6-0.2,53-1.1c16.8-0.8,33-1.9,48.5-3.4
		C146.1,385.3,145.8,364.8,145.5,344.2z"/>
</g>
<g id="LWPOLYLINE">
	<rect x="76.9" y="449.8" class="st0" width="72" height="192"/>
</g>
<g id="SPLINE_00000039113378038504217560000007136158560148999809_">
	<path class="st0" d="M264,196.5c-12.8,0.7-25.6,1.3-38.4,2l-5.3-6l-4,6c-16.8,0.6-33.6,1.2-50.4,1.9c1.7,17,3.4,34.1,5.1,51.1
		l-6.9,6.2l8,4l7.3,24.7l-5.6,7.8l6.9,3.1c6.6,9.6,8.6,18,9.3,23.1c1.3,9.5-0.8,18.8-5.1,37.2c-1.5,6.3-2.9,11.5-3.8,14.8
		c24.2,3.6,48.4,7.3,72.7,10.9l4,8.4l4.7-6.4l25.6-3.8l-9.3-38.2l6.9-7.6l-8.2-2.4c-3.6-15.8-5.7-29.6-6.9-40.4
		c-2.1-18.5-1.8-28.8-3.4-55.8C266.1,220.8,264.9,207.1,264,196.5z"/>
</g>
<g id="SPLINE_00000040557769429996680060000013224194538036233142_">
	<path class="st0" d="M394.1,159.9l-44.7,8.4c0,0-5.5-7.9-5.9-7.8s-3.4,7.8-3.4,7.8l-39.9,5.5c0.7,6.5,1.9,16.3,3.3,28.3
		c3.6,29,6.6,49.8,7.3,54.5c2.8,20.1,5.1,52.4,2.2,105.3c3.2-0.2,8.1-0.3,13.8,0.8c8.9,1.8,14.4,5.5,24.2,11.4
		c5.6,3.4,14.2,8.6,25.2,14.7c0.2,3.7,0.3,7.4,0.5,11.1l8.4-6.4c6.5,2.4,14.2,4.8,23,6.6c10.9,2.2,20.8,3.1,29,3.2
		c-0.2-5.6-0.9-14.5-3.1-25.2c-4.5-21.1-13.1-38.5-22.4-57c-9.3-18.6-13.9-24.7-15.2-37.6c-0.9-9.7,0.5-17.9,1.9-23.3
		c2.6-2.5,5.3-5,7.9-7.4l-5.7-3.2l1.2-27l8.7-6.4l-7.4-5c-0.8-8.2-1.9-16.9-3.4-26C397.7,176.2,395.9,167.7,394.1,159.9z"/>
</g>
<g id="SPLINE_00000002380898978751292510000016648036536757380757_">
	<path class="st0" d="M362.4,419.1l-76,3.8l-6.2-7.3c-1.6,2.8-3.1,5.6-4.7,8.4c-5.2,0.3-10.4,0.7-15.6,1
		c-19.9,1.3-39.6,2.8-59.3,4.2c0,12-0.1,24-0.1,36c-2.7,2.9-5.4,5.8-8.2,8.7l10.4,3.8c1.7,3.6,3.6,8.7,4.9,14.9c0,0,1.5,7,1.6,13.4
		c0.2,12.4-4.9,22.4-7.9,28.6c0,0-11.4,24-16.9,48.4c-2,9-4,22.7-2.2,40.4c0.4,0.9,0.9,1.8,1.3,2.7c9.1-1.9,19-4.4,29.5-7.7
		c9-2.8,17.2-5.9,24.7-9c2.5,1.8,5,3.6,7.6,5.3l1.1-9.8c0,0,40.4-29.5,40.4-29.3s6.9,5.3,6.9,5.3l1.4-8.7c5.1-5,11.1-10.2,18.2-15.2
		c24.7-17.3,50.1-23,66.6-25.1c-0.1-0.8-0.1-1.6-0.2-2.4c-2-2.7-4.6-6.7-7.4-11.7c-4.2-7.4-6.6-11.8-8.1-18.1
		c-1.8-7.8-1.2-14.2-0.7-19.2c0.5-5.1,1.4-9.3,2.2-12.4c3.1-3.1,6.1-6.2,9.2-9.3l-7.8-4.7L362.4,419.1z"/>
</g>
<g id="SPLINE_00000000942633365783958950000012051658762861760901_">
	<path class="st0" d="M311.3,610l-1,8.4c-22.9,10.3-50.3,20.7-81.9,29.1c-41.4,11-78.7,15.6-109.2,17.2
		c4.8,44.6,9.7,89.3,14.5,133.9c28.8-3.6,66.2-9.9,108.9-21.8c0,0,3.8-1,10.3-3c0,0,13.7-4.1,26.5-8.4C355.5,739.9,418,700,418,700
		c28.2-18,63.6-40.9,100.9-81.6c8.9-9.7,35.9-38.5,60-83.3c38.5-71.7,52.5-134.8,58.2-175.5c8.5-60.6,4.1-110.3,0.4-152.6
		c-4.5-51.8-12.9-94.9-20.2-126.1c-24.5,5-49.6,10.6-75.3,16.9c-21.2,5.1-41.8,10.5-61.8,15.9c1.3,18.1,1.6,33.2,1.6,44.4
		c-0.1,25.5-0.4,52.7-8.3,77.5c-2.6,8-5.5,16.4-5.5,16.4c-5.6,16.2-7.7,20.5-10.4,29.9c-1.4,4.8-3.3,12.2-4.9,21.4
		c-3,0.7-6.1,1.3-9.1,2l7.3,6.7c0,3,0,7.6,0.2,13.3c0.7,17.1,2.9,27.4,5,44c0,0,1.6,12.2,3.1,30.4c1.4,17.1,0.5,43.4-11.6,80.4
		c-3.1,0.9-6.2,1.9-9.3,2.8l4.7,9.8c-11.9,29.2-27.4,49.3-38.3,61.4c-17,18.7-33.7,30-44.4,37.2c-16,10.7-30.6,18-41.9,23
		C316.1,612.9,313.7,611.5,311.3,610z"/>
</g>
<g id="SPLINE_00000046321790136386764350000006153428787799600059_">
	<path class="st0" d="M621.1,778.9c0-22.4,0-44.8,0-67.2c-13-0.2-27.5,0.3-43.3,2c-18.8,2-35.7,5.3-50.2,9c-2.3-2.2-4.7-4.4-7-6.7
		l-4.3,8.1c-6.1,2.1-12.8,4.1-20.2,5.8c-9.5,2.2-18.3,3.5-26.2,4.3c-2-2.1-3.9-4.2-5.9-6.3l-4.1,6.3c-7.6,2-17.8,3.7-29.9,3.6
		c-8.1-0.1-15.2-1.1-21.1-2.3c-2.6,12.9-5.1,25.8-7.7,38.6c11.2,3.4,23.4,6.6,36.7,9.2c24.9,4.9,47.5,6.7,67,7
		c1.7,2.5,3.4,5,5.1,7.4l5.8-6.4c17.4-4.8,32.2-7.4,43.3-8.9c14.1-1.9,26-2.4,36-2.9C605.5,779.1,614.4,779,621.1,778.9z"/>
</g>
</svg>
