<?xml version="1.0" encoding="utf-8"?>
<!-- Generator: Adobe Illustrator 28.0.0, SVG Export Plug-In . SVG Version: 6.00 Build 0)  -->
<svg version="1.1" xmlns="http://www.w3.org/2000/svg" xmlns:xlink="http://www.w3.org/1999/xlink" x="0px" y="0px"
	 viewBox="0 0 1190.6 841.9" style="enable-background:new 0 0 1190.6 841.9;" xml:space="preserve">
<style type="text/css">
	.st0{fill:none;stroke:#000000;stroke-width:0.75;stroke-miterlimit:10;}
	.st1{font-family:'MyriadPro-Regular';}
	.st2{font-size:10px;}
	.st3{font-family:'AdobeSongStd-Light-GBpc-EUC-H';}
	.st4{font-size:16.1703px;}
	.st5{fill:none;stroke:#221714;stroke-width:0.7087;stroke-linecap:round;stroke-linejoin:round;stroke-miterlimit:10;}
	.st6{fill:none;stroke:#221F20;stroke-width:2.0719;stroke-miterlimit:10;}
	.st7{fill:#221F20;}
	.st8{fill:#231815;}
	.st9{font-size:12px;}
	.st10{fill:none;stroke:#221F20;stroke-width:1.7728;stroke-miterlimit:10;}
	.st11{fill:none;stroke:#221F20;stroke-width:1.5488;stroke-miterlimit:10;}
</style>
<g id="格式">
	<g id="比例尺">
		<line class="st0" x1="43.2" y1="738.6" x2="43.2" y2="764.9"/>
		<line class="st0" x1="46" y1="755.2" x2="46" y2="764.9"/>
		<line class="st0" x1="48.9" y1="755.2" x2="48.9" y2="764.9"/>
		<line class="st0" x1="51.7" y1="755.2" x2="51.7" y2="764.9"/>
		<line class="st0" x1="54.5" y1="755.1" x2="54.5" y2="764.9"/>
		<line class="st0" x1="57.4" y1="747.1" x2="57.4" y2="764.9"/>
		<line class="st0" x1="60.2" y1="755.2" x2="60.2" y2="764.9"/>
		<line class="st0" x1="63" y1="755.2" x2="63" y2="764.9"/>
		<line class="st0" x1="65.9" y1="755.2" x2="65.9" y2="764.9"/>
		<line class="st0" x1="68.7" y1="755.1" x2="68.7" y2="764.9"/>
		<line class="st0" x1="71.5" y1="738.6" x2="71.5" y2="764.9"/>
		<line class="st0" x1="74.4" y1="755.2" x2="74.4" y2="764.9"/>
		<line class="st0" x1="77.2" y1="755.2" x2="77.2" y2="764.9"/>
		<line class="st0" x1="80" y1="755.2" x2="80" y2="764.9"/>
		<line class="st0" x1="82.9" y1="755.1" x2="82.9" y2="764.9"/>
		<line class="st0" x1="85.7" y1="747.1" x2="85.7" y2="764.9"/>
		<line class="st0" x1="88.5" y1="755.2" x2="88.5" y2="764.9"/>
		<line class="st0" x1="91.4" y1="755.2" x2="91.4" y2="764.9"/>
		<line class="st0" x1="94.2" y1="755.2" x2="94.2" y2="764.9"/>
		<line class="st0" x1="97" y1="755.1" x2="97" y2="764.9"/>
		<line class="st0" x1="99.9" y1="738.6" x2="99.9" y2="764.9"/>
		<line class="st0" x1="102.7" y1="755.2" x2="102.7" y2="764.9"/>
		<line class="st0" x1="105.5" y1="755.2" x2="105.5" y2="764.9"/>
		<line class="st0" x1="108.4" y1="755.2" x2="108.4" y2="764.9"/>
		<line class="st0" x1="111.2" y1="755.1" x2="111.2" y2="764.9"/>
		<line class="st0" x1="114.1" y1="747.1" x2="114.1" y2="764.9"/>
		<line class="st0" x1="116.9" y1="755.2" x2="116.9" y2="764.9"/>
		<line class="st0" x1="119.7" y1="755.2" x2="119.7" y2="764.9"/>
		<line class="st0" x1="122.6" y1="755.2" x2="122.6" y2="764.9"/>
		<line class="st0" x1="125.4" y1="755.1" x2="125.4" y2="764.9"/>
		<line class="st0" x1="128.2" y1="738.6" x2="128.2" y2="764.9"/>
		<line class="st0" x1="131.1" y1="755.2" x2="131.1" y2="764.9"/>
		<line class="st0" x1="133.9" y1="755.2" x2="133.9" y2="764.9"/>
		<line class="st0" x1="136.7" y1="755.2" x2="136.7" y2="764.9"/>
		<line class="st0" x1="139.6" y1="755.1" x2="139.6" y2="764.9"/>
		<line class="st0" x1="142.4" y1="747.1" x2="142.4" y2="764.9"/>
		<line class="st0" x1="145.2" y1="755.2" x2="145.2" y2="764.9"/>
		<line class="st0" x1="148.1" y1="755.2" x2="148.1" y2="764.9"/>
		<line class="st0" x1="150.9" y1="755.2" x2="150.9" y2="764.9"/>
		<line class="st0" x1="153.7" y1="755.1" x2="153.7" y2="764.9"/>
		<line class="st0" x1="156.6" y1="738.6" x2="156.6" y2="764.9"/>
		<line class="st0" x1="159.4" y1="755.2" x2="159.4" y2="764.9"/>
		<line class="st0" x1="162.2" y1="755.2" x2="162.2" y2="764.9"/>
		<line class="st0" x1="165.1" y1="755.2" x2="165.1" y2="764.9"/>
		<line class="st0" x1="167.9" y1="755.1" x2="167.9" y2="764.9"/>
		<line class="st0" x1="170.8" y1="747.1" x2="170.8" y2="764.9"/>
		<line class="st0" x1="173.6" y1="755.2" x2="173.6" y2="764.9"/>
		<line class="st0" x1="176.4" y1="755.2" x2="176.4" y2="764.9"/>
		<line class="st0" x1="179.3" y1="755.2" x2="179.3" y2="764.9"/>
		<line class="st0" x1="182.1" y1="755.1" x2="182.1" y2="764.9"/>
		<line class="st0" x1="184.9" y1="738.6" x2="184.9" y2="764.9"/>
		<line class="st0" x1="187.7" y1="755.2" x2="187.7" y2="764.9"/>
		<line class="st0" x1="190.6" y1="755.2" x2="190.6" y2="764.9"/>
		<line class="st0" x1="193.4" y1="755.2" x2="193.4" y2="764.9"/>
		<line class="st0" x1="196.3" y1="755.1" x2="196.3" y2="764.9"/>
		<line class="st0" x1="199.1" y1="747.1" x2="199.1" y2="764.9"/>
		<line class="st0" x1="201.9" y1="755.2" x2="201.9" y2="764.9"/>
		<line class="st0" x1="204.8" y1="755.2" x2="204.8" y2="764.9"/>
		<line class="st0" x1="207.6" y1="755.2" x2="207.6" y2="764.9"/>
		<line class="st0" x1="210.4" y1="755.1" x2="210.4" y2="764.9"/>
		<line class="st0" x1="213.3" y1="738.6" x2="213.3" y2="764.9"/>
		<line class="st0" x1="216.1" y1="755.2" x2="216.1" y2="764.9"/>
		<line class="st0" x1="218.9" y1="755.2" x2="218.9" y2="764.9"/>
		<line class="st0" x1="221.8" y1="755.2" x2="221.8" y2="764.9"/>
		<line class="st0" x1="224.6" y1="755.1" x2="224.6" y2="764.9"/>
		<line class="st0" x1="227.4" y1="747.1" x2="227.4" y2="764.9"/>
		<line class="st0" x1="230.3" y1="755.2" x2="230.3" y2="764.9"/>
		<line class="st0" x1="233.1" y1="755.2" x2="233.1" y2="764.9"/>
		<line class="st0" x1="236" y1="755.2" x2="236" y2="764.9"/>
		<line class="st0" x1="238.8" y1="755.1" x2="238.8" y2="764.9"/>
		<line class="st0" x1="241.6" y1="738.6" x2="241.6" y2="764.9"/>
		<line class="st0" x1="244.4" y1="755.2" x2="244.4" y2="764.9"/>
		<line class="st0" x1="247.3" y1="755.2" x2="247.3" y2="764.9"/>
		<line class="st0" x1="250.1" y1="755.2" x2="250.1" y2="764.9"/>
		<line class="st0" x1="252.9" y1="755.1" x2="252.9" y2="764.9"/>
		<line class="st0" x1="255.8" y1="747.1" x2="255.8" y2="764.9"/>
		<line class="st0" x1="258.6" y1="755.2" x2="258.6" y2="764.9"/>
		<line class="st0" x1="261.4" y1="755.2" x2="261.4" y2="764.9"/>
		<line class="st0" x1="264.3" y1="755.2" x2="264.3" y2="764.9"/>
		<line class="st0" x1="267.1" y1="755.1" x2="267.1" y2="764.9"/>
		<line class="st0" x1="269.9" y1="738.6" x2="269.9" y2="764.9"/>
		<line class="st0" x1="272.8" y1="755.2" x2="272.8" y2="764.9"/>
		<line class="st0" x1="275.6" y1="755.2" x2="275.6" y2="764.9"/>
		<line class="st0" x1="278.4" y1="755.2" x2="278.4" y2="764.9"/>
		<line class="st0" x1="281.3" y1="755.1" x2="281.3" y2="764.9"/>
		<line class="st0" x1="284.1" y1="747.1" x2="284.1" y2="764.9"/>
		<line class="st0" x1="287" y1="755.2" x2="287" y2="764.9"/>
		<line class="st0" x1="289.8" y1="755.2" x2="289.8" y2="764.9"/>
		<line class="st0" x1="292.6" y1="755.2" x2="292.6" y2="764.9"/>
		<line class="st0" x1="295.4" y1="755.1" x2="295.4" y2="764.9"/>
		<line class="st0" x1="298.3" y1="738.6" x2="298.3" y2="764.9"/>
		<line class="st0" x1="301.1" y1="755.2" x2="301.1" y2="764.9"/>
		<line class="st0" x1="304" y1="755.2" x2="304" y2="764.9"/>
		<line class="st0" x1="306.8" y1="755.2" x2="306.8" y2="764.9"/>
		<line class="st0" x1="309.6" y1="755.1" x2="309.6" y2="764.9"/>
		<line class="st0" x1="312.5" y1="747.1" x2="312.5" y2="764.9"/>
		<line class="st0" x1="315.3" y1="755.2" x2="315.3" y2="764.9"/>
		<line class="st0" x1="318.1" y1="755.2" x2="318.1" y2="764.9"/>
		<line class="st0" x1="321" y1="755.2" x2="321" y2="764.9"/>
		<line class="st0" x1="323.8" y1="755.1" x2="323.8" y2="764.9"/>
		<line class="st0" x1="326.6" y1="738.6" x2="326.6" y2="764.9"/>
		<line class="st0" x1="329.5" y1="755.2" x2="329.5" y2="764.9"/>
		<line class="st0" x1="332.3" y1="755.2" x2="332.3" y2="764.9"/>
		<line class="st0" x1="335.1" y1="755.2" x2="335.1" y2="764.9"/>
		<line class="st0" x1="338" y1="755.1" x2="338" y2="764.9"/>
		<line class="st0" x1="340.8" y1="747.1" x2="340.8" y2="764.9"/>
		<line class="st0" x1="343.6" y1="755.2" x2="343.6" y2="764.9"/>
		<line class="st0" x1="346.5" y1="755.2" x2="346.5" y2="764.9"/>
		<line class="st0" x1="349.3" y1="755.2" x2="349.3" y2="764.9"/>
		<line class="st0" x1="352.1" y1="755.1" x2="352.1" y2="764.9"/>
		<line class="st0" x1="355" y1="738.6" x2="355" y2="764.9"/>
		<line class="st0" x1="357.8" y1="755.2" x2="357.8" y2="764.9"/>
		<line class="st0" x1="360.6" y1="755.2" x2="360.6" y2="764.9"/>
		<line class="st0" x1="363.5" y1="755.2" x2="363.5" y2="764.9"/>
		<line class="st0" x1="366.3" y1="755.1" x2="366.3" y2="764.9"/>
		<line class="st0" x1="369.2" y1="747.1" x2="369.2" y2="764.9"/>
		<line class="st0" x1="372" y1="755.2" x2="372" y2="764.9"/>
		<line class="st0" x1="374.8" y1="755.2" x2="374.8" y2="764.9"/>
		<line class="st0" x1="377.7" y1="755.2" x2="377.7" y2="764.9"/>
		<line class="st0" x1="380.5" y1="755.1" x2="380.5" y2="764.9"/>
		<line class="st0" x1="383.3" y1="738.6" x2="383.3" y2="764.9"/>
		<line class="st0" x1="386.2" y1="755.2" x2="386.2" y2="764.9"/>
		<line class="st0" x1="389" y1="755.2" x2="389" y2="764.9"/>
		<line class="st0" x1="391.8" y1="755.2" x2="391.8" y2="764.9"/>
		<line class="st0" x1="394.7" y1="755.1" x2="394.7" y2="764.9"/>
		<line class="st0" x1="397.5" y1="747.1" x2="397.5" y2="764.9"/>
		<line class="st0" x1="400.3" y1="755.2" x2="400.3" y2="764.9"/>
		<line class="st0" x1="403.2" y1="755.2" x2="403.2" y2="764.9"/>
		<line class="st0" x1="406" y1="755.2" x2="406" y2="764.9"/>
		<line class="st0" x1="408.8" y1="755.1" x2="408.8" y2="764.9"/>
		<line class="st0" x1="411.7" y1="738.6" x2="411.7" y2="764.9"/>
		<line class="st0" x1="414.5" y1="755.2" x2="414.5" y2="764.9"/>
		<line class="st0" x1="417.3" y1="755.2" x2="417.3" y2="764.9"/>
		<line class="st0" x1="420.2" y1="755.2" x2="420.2" y2="764.9"/>
		<line class="st0" x1="423" y1="755.1" x2="423" y2="764.9"/>
		<line class="st0" x1="425.8" y1="747.1" x2="425.8" y2="764.9"/>
		<line class="st0" x1="428.7" y1="755.2" x2="428.7" y2="764.9"/>
		<line class="st0" x1="431.5" y1="755.2" x2="431.5" y2="764.9"/>
		<line class="st0" x1="434.4" y1="755.2" x2="434.4" y2="764.9"/>
		<line class="st0" x1="437.2" y1="755.1" x2="437.2" y2="764.9"/>
		<line class="st0" x1="440" y1="738.6" x2="440" y2="764.9"/>
		<line class="st0" x1="442.8" y1="755.2" x2="442.8" y2="764.9"/>
		<line class="st0" x1="445.7" y1="755.2" x2="445.7" y2="764.9"/>
		<line class="st0" x1="448.5" y1="755.2" x2="448.5" y2="764.9"/>
		<line class="st0" x1="451.4" y1="755.1" x2="451.4" y2="764.9"/>
		<line class="st0" x1="454.2" y1="747.1" x2="454.2" y2="764.9"/>
		<line class="st0" x1="457" y1="755.2" x2="457" y2="764.9"/>
		<line class="st0" x1="459.9" y1="755.2" x2="459.9" y2="764.9"/>
		<line class="st0" x1="462.7" y1="755.2" x2="462.7" y2="764.9"/>
		<line class="st0" x1="465.5" y1="755.1" x2="465.5" y2="764.9"/>
		<line class="st0" x1="468.4" y1="738.6" x2="468.4" y2="764.9"/>
		<text transform="matrix(1 0 0 1 40.2443 776.7835)" class="st1 st2">0</text>
		<text transform="matrix(1 0 0 1 68.6945 777.0433)" class="st1 st2">1</text>
		<text transform="matrix(1 0 0 1 97.0441 776.7835)" class="st1 st2">2</text>
		<text transform="matrix(1 0 0 1 125.3942 776.7835)" class="st1 st2">3</text>
		<text transform="matrix(1 0 0 1 153.7443 776.7835)" class="st1 st2">4</text>
		<text transform="matrix(1 0 0 1 182.0944 776.6937)" class="st1 st2">5</text>
		<text transform="matrix(1 0 0 1 210.4445 776.7835)" class="st1 st2">6</text>
		<text transform="matrix(1 0 0 1 238.7941 776.7835)" class="st1 st2">7</text>
		<text transform="matrix(1 0 0 1 267.1447 776.7835)" class="st1 st2">8</text>
		<text transform="matrix(1 0 0 1 295.4943 776.7835)" class="st1 st2">9</text>
		<text transform="matrix(1 0 0 1 321.0245 776.7835)" class="st1 st2">10</text>
		<text transform="matrix(1 0 0 1 349.3741 776.7835)" class="st1 st2">11</text>
		<text transform="matrix(1 0 0 1 377.7247 776.7835)" class="st1 st2">12</text>
		<text transform="matrix(1 0 0 1 406.0743 776.7835)" class="st1 st2">13</text>
		<text transform="matrix(1 0 0 1 434.424 776.6937)" class="st1 st2">14</text>
		<text transform="matrix(1 0 0 1 462.7745 776.7835)" class="st1 st2">15</text>
	</g>
	<text transform="matrix(1 0 0 1 35.8052 725.4316)" class="st3 st4"> 粉色连衣裙 09/5/2026</text>
</g>
<g id="纸样层">
	<g id="SPLINE_00000137835848958809339180000005655433868665048473_">
		<path class="st5" d="M406.3,361.8c-2.7,0.4-5.7,0.7-9,0.7c-6.9,0-12.2,0.1-16.8-3.4c-2.1-1.6-3.2-3.3-4.7-5.6
			c-2.9-4.5-4.2-8.8-4.8-11.7c-11.6,0-23.1,0-34.7,0c0,3.4-0.1,10.9-0.2,20.9c0,0-0.1,11.5-3.1,29.8c-0.3,2.1-1,5.9-4,8.9
			c-2.5,2.5-5.5,3.4-7.3,3.8c0.4,11,0.7,21.9,1.1,32.9c8.3,5.4,24,14,45.5,17.1c23.4,3.4,42.2-1.5,51.8-4.6c0-10.6,0-21.2,0-31.8
			l6-5.1l-6-2.4L406.3,361.8z"/>
	</g>
	<g id="SPLINE_00000098902302492307763890000010702009123951512982_">
		<path class="st5" d="M370,216.8c-4.2,0.7-7.8,0.9-10.3,1c-6.9,0.2-10.5,0.3-14.2-1.7c-3-1.6-4.8-3.8-6.1-5.4
			c-3.9-4.8-5.2-9.9-5.7-13c-11.3,0.4-22.6,0.8-33.9,1.3c0.2,3.4,0.5,10.9,1,20.9h0l0,0c0,0-1,20.8-2.1,27.5
			c-0.5,2.8-1.6,6.9-4.6,11.7c-1.9-0.2-3.9-0.5-5.8-0.7c0,2.5-0.1,5-0.1,7.6c-3.8,0.8-7.6,1.7-11.4,2.5c1.3,10.1,2.6,20.1,3.9,30.2
			c3.5-0.2,6.9-0.5,10.4-0.7c1.4,2.5,2.8,5,4.2,7.5c1.7-2,3.3-3.9,5-5.9c2.6,1.5,6.4,3.4,11.1,5.2c11.7,4.5,21.4,5.2,26.9,5.6
			c22.6,1.6,44.1-5.1,51.4-7.6c-0.6-10.6-1.2-21.2-1.8-31.7l5.7-5.4l-6.1-2.1C381.5,247.9,375.8,232.3,370,216.8z"/>
	</g>
	<g id="SPLINE_00000181050992211442975320000000150212974286185365_">
		<path class="st5" d="M781.7,215.4c-5.9-0.1-12.3-0.5-19.2-1.3c-11.4-1.4-21.4-3.6-30-6.1c-0.8-2.9-1.6-5.8-2.4-8.7l-6.4,5.8
			c-7-0.9-14.2-1.8-21.6-2.5c-18.1-1.7-35.3-2.4-51.4-2.4c-0.5,21-1,41.9-1.6,62.9c23.6,1.3,50,1.5,78.6-0.4
			c20.6-1.4,39.8-3.7,57.4-6.4C784,242.7,782.9,229.1,781.7,215.4z"/>
	</g>
	<g id="SPLINE_00000147941397411694477840000015297925436342793147_">
		<path class="st5" d="M553.9,314.9c-8.1,0.1-16.1,0.3-24.2,0.4l-5.1-6.4l-4.2,5.1c-13.1-1.5-28.2-2.3-45-1.4
			c-9.5,0.5-18.4,1.5-26.5,2.7c0.3,12.1,1,24.6,1.9,37.6c0.7,9.6,1.6,18.9,2.5,28c16.9,0.1,34.6-0.2,53-1.1
			c16.8-0.8,33-1.9,48.5-3.4C554.5,356,554.2,335.4,553.9,314.9z"/>
	</g>
	<g id="LWPOLYLINE_00000013158794742708724040000001688582308662493325_">
		<rect x="638.8" y="311.1" class="st5" width="72" height="192"/>
	</g>
	<g id="SPLINE_00000017493689461089210220000007868825113542956694_">
		<path class="st5" d="M1057.9,172.5c-12.8,0.7-25.6,1.3-38.4,2l-5.3-6l-4,6c-16.8,0.6-33.6,1.2-50.4,1.9c1.7,17,3.4,34.1,5.1,51.1
			l-6.9,6.2l8,4l7.3,24.7l-5.6,7.8l6.9,3.1c6.6,9.6,8.6,18,9.3,23.1c1.3,9.5-0.8,18.8-5.1,37.2c-1.5,6.3-2.9,11.5-3.8,14.8
			c24.2,3.6,48.4,7.3,72.7,10.9l4,8.4l4.7-6.4l25.6-3.8l-9.3-38.2l6.9-7.6l-8.2-2.4c-3.6-15.8-5.7-29.6-6.9-40.4
			c-2.1-18.5-1.8-28.8-3.4-55.8C1059.9,196.8,1058.8,183.1,1057.9,172.5z"/>
	</g>
	<g id="SPLINE_00000065032793802747691200000012600679730536700837_">
		<path class="st5" d="M1018.7,451.6L974,460c0,0-5.5-7.9-5.9-7.8s-3.4,7.8-3.4,7.8l-39.9,5.5c0.7,6.5,1.9,16.3,3.3,28.3
			c3.6,29,6.6,49.8,7.3,54.5c2.8,20.1,5.1,52.4,2.2,105.3c3.2-0.2,8.1-0.3,13.8,0.8c8.9,1.8,14.4,5.5,24.2,11.4
			c5.6,3.4,14.2,8.6,25.2,14.7c0.2,3.7,0.3,7.4,0.5,11.1l8.4-6.4c6.5,2.4,14.2,4.8,23,6.6c10.9,2.2,20.8,3.1,29,3.2
			c-0.2-5.6-0.9-14.5-3.1-25.2c-4.5-21.1-13.1-38.5-22.4-57c-9.3-18.6-13.9-24.7-15.2-37.6c-0.9-9.7,0.5-17.9,1.9-23.3
			c2.6-2.5,5.3-5,7.9-7.4l-5.7-3.2l1.2-27l8.7-6.4l-7.4-5c-0.8-8.2-1.9-16.9-3.4-26C1022.4,467.9,1020.6,459.5,1018.7,451.6z"/>
	</g>
	<g id="SPLINE_00000072253003509918074520000016773312085275758517_">
		<path class="st5" d="M919.4,330.7l-76,3.8l-6.2-7.3c-1.6,2.8-3.1,5.6-4.7,8.4c-5.2,0.3-10.4,0.7-15.6,1
			c-19.9,1.3-39.6,2.8-59.3,4.2c0,12-0.1,24-0.1,36c-2.7,2.9-5.4,5.8-8.2,8.7l10.4,3.8c1.7,3.6,3.6,8.7,4.9,14.9c0,0,1.5,7,1.6,13.4
			c0.2,12.4-4.9,22.4-7.9,28.6c0,0-11.4,24-16.9,48.4c-2,9-4,22.7-2.2,40.4c0.4,0.9,0.9,1.8,1.3,2.7c9.1-1.9,19-4.4,29.5-7.7
			c9-2.8,17.2-5.9,24.7-9c2.5,1.8,5,3.6,7.6,5.3l1.1-9.8c0,0,40.4-29.5,40.4-29.3s6.9,5.3,6.9,5.3l1.4-8.7
			c5.1-5,11.1-10.2,18.2-15.2c24.7-17.3,50.1-23,66.6-25.1c-0.1-0.8-0.1-1.6-0.2-2.4c-2-2.7-4.6-6.7-7.4-11.7
			c-4.2-7.4-6.6-11.8-8.1-18.1c-1.8-7.8-1.2-14.2-0.7-19.2c0.5-5.1,1.4-9.3,2.2-12.4c3.1-3.1,6.1-6.2,9.2-9.3l-7.8-4.7L919.4,330.7z
			"/>
	</g>
	<g id="SPLINE_00000050644516923335343680000001470133105068264629_">
		<path class="st5" d="M251.3,367.1l-8.4-1.4c-9.2-23.4-18.2-51.3-25.1-83.2c-9-41.9-11.7-79.3-11.9-109.9
			c-44.8,2.7-89.6,5.3-134.5,8c2.2,28.9,6.7,66.6,16.5,109.8c0,0,0.9,3.8,2.5,10.4c0,0,3.4,13.8,7.1,26.8
			c21.9,77.3,58.7,141.6,58.7,141.6c16.6,29,37.8,65.5,76.6,104.7c9.2,9.3,36.7,37.7,80.3,64c69.8,42,132.1,58.9,172.5,66.6
			c60.1,11.4,109.9,9.5,152.4,7.8c52-2,95.4-8.3,126.9-14.1c-3.8-24.7-8.2-50-13.2-76c-4.1-21.4-8.4-42.2-12.9-62.5
			c-18.1,0.5-33.3,0-44.4-0.6c-25.5-1.3-52.7-2.9-77-12.1c-7.9-3-16.1-6.3-16.1-6.3c-15.9-6.4-20.1-8.6-29.4-11.8
			c-4.8-1.6-12-3.9-21.2-5.9c-0.5-3.1-1-6.1-1.6-9.2l-7,7c-3-0.2-7.6-0.4-13.3-0.4c-17.2-0.1-27.5,1.5-44.2,2.9c0,0-12.3,1-30.5,1.6
			c-17.1,0.6-43.3-1.6-79.8-15.4c-0.8-3.2-1.6-6.3-2.4-9.5l-10,4.3c-28.6-13.3-47.9-29.8-59.4-41.3c-17.9-17.8-28.4-35.1-35-46.2
			c-9.9-16.5-16.5-31.4-21-43C248.2,371.7,249.7,369.4,251.3,367.1z"/>
	</g>
	<g id="SPLINE_00000145032428781336895400000016578774251893705106_">
		<path class="st5" d="M618.8,221.8c0-22.4,0-44.8,0-67.2c-13-0.2-27.5,0.3-43.3,2c-18.8,2-35.7,5.3-50.2,9c-2.3-2.2-4.7-4.4-7-6.7
			l-4.3,8.1c-6.1,2.1-12.8,4.1-20.2,5.8c-9.5,2.2-18.3,3.5-26.2,4.3c-2-2.1-3.9-4.2-5.9-6.3l-4.1,6.3c-7.6,2-17.8,3.7-29.9,3.6
			c-8.1-0.1-15.2-1.1-21.1-2.3c-2.6,12.9-5.1,25.8-7.7,38.6c11.2,3.4,23.4,6.6,36.7,9.2c24.9,4.9,47.5,6.7,67,7
			c1.7,2.5,3.4,5,5.1,7.4l5.8-6.4c17.4-4.8,32.2-7.4,43.3-8.9c14.1-1.9,26-2.4,36-2.9C603.2,221.9,612.1,221.8,618.8,221.8z"/>
	</g>
</g>
<g id="文字层_提示层">
	<line class="st6" x1="278" y1="497.8" x2="278" y2="549"/>
	<polygon class="st7" points="271.4,539.7 273.4,539.2 278,548.9 282.6,539.2 284.6,539.7 278,553.5 	"/>
	<line class="st6" x1="350.4" y1="373.7" x2="350.4" y2="424.9"/>
	<polygon class="st7" points="344,415.1 345.9,414.5 350.6,424.3 355.2,414.5 357.2,415.1 350.6,428.9 	"/>
	<line class="st6" x1="471.4" y1="319.6" x2="471.4" y2="370.8"/>
	<polygon class="st7" points="464.8,361.5 466.7,360.9 471.4,370.6 476,360.9 477.9,361.5 471.4,375.2 	"/>
	<text transform="matrix(1 0 0 1 318.2958 556.1568)" class="st8 st3 st9">下裙X2</text>
	<line class="st6" x1="652.8" y1="395" x2="652.8" y2="446.2"/>
	<polygon class="st7" points="646.2,436.9 648.1,436.3 652.8,446 657.4,436.3 659.4,436.9 652.8,450.6 	"/>
	<text transform="matrix(1 0 0 1 1012.9148 309.2844)"><tspan x="0" y="0" class="st8 st3 st9">后身X1</tspan><tspan x="0" y="14.4" class="st8 st3 st9">网纱X1</tspan><tspan x="0" y="28.8" class="st8 st3 st9">面</tspan></text>
	<line class="st10" x1="671.9" y1="206.8" x2="671.9" y2="250.6"/>
	<polygon class="st7" points="666.3,242.6 668,242.1 671.9,250.5 675.9,242.1 677.6,242.6 671.9,254.4 	"/>
	<line class="st6" x1="1005" y1="235.8" x2="1005" y2="287"/>
	<polygon class="st7" points="998.5,277.7 1000.4,277.2 1005,286.9 1009.7,277.2 1011.6,277.7 1005,291.5 	"/>
	<text transform="matrix(1 0 0 1 968.4703 602.0251)"><tspan x="0" y="0" class="st8 st3 st9">后身X1</tspan><tspan x="0" y="14.4" class="st8 st3 st9">网纱X1</tspan><tspan x="0" y="28.8" class="st8 st3 st9">面</tspan></text>
	<text transform="matrix(1 0 0 1 696.4703 231.3585)"><tspan x="0" y="0" class="st8 st3 st9">后中片X1</tspan><tspan x="0" y="14.4" class="st8 st3 st9">面</tspan></text>
	<text transform="matrix(1 0 0 1 487.137 346.4696)"><tspan x="0" y="0" class="st8 st3 st9">后身中片X1</tspan><tspan x="0" y="14.4" class="st8 st3 st9">面</tspan></text>
	<text transform="matrix(1 0 0 1 531.5815 191.8029)"><tspan x="0" y="0" class="st8 st3 st9">前中片X1</tspan><tspan x="0" y="14.4" class="st8 st3 st9">面</tspan></text>
	<line class="st6" x1="960.6" y1="528.6" x2="960.6" y2="579.8"/>
	<polygon class="st7" points="954,570.4 956,569.9 960.6,579.6 965.2,569.9 967.2,570.4 960.6,584.2 	"/>
	<text transform="matrix(1 0 0 1 819.137 433.1363)"><tspan x="0" y="0" class="st8 st3 st9">前身X2</tspan><tspan x="0" y="28.8" class="st8 st3 st9">面</tspan></text>
	<line class="st6" x1="798.4" y1="387.7" x2="798.4" y2="438.9"/>
	<polygon class="st7" points="791.8,429.5 793.7,429 798.4,438.7 803,429 805,429.5 798.4,443.3 	"/>
	<text transform="matrix(1 0 0 1 334.6522 261.8881)" class="st8 st3 st9">上衣X2</text>
	<text transform="matrix(1 0 0 1 363.0966 402.3325)"><tspan x="0" y="0" class="st8 st3 st9">上衣</tspan><tspan x="0" y="14.4" class="st8 st3 st9">内里X2</tspan></text>
	<line class="st6" x1="322.8" y1="234.1" x2="322.8" y2="285.2"/>
	<polygon class="st7" points="316.2,275.9 318.1,275.4 322.8,285.1 327.4,275.4 329.3,275.9 322.8,289.7 	"/>
	<text transform="matrix(1 0 0 1 663.3575 401.7327)"><tspan x="0" y="0" class="st8 st3 st9">魔术贴</tspan><tspan x="0" y="14.4" class="st8 st3 st9">里布</tspan><tspan x="0" y="28.8" class="st8 st3 st9">X1</tspan></text>
	<g>
		<line class="st11" x1="507.6" y1="174.8" x2="507.6" y2="213"/>
		<polygon class="st7" points="502.7,206 504.1,205.6 507.6,212.9 511.1,205.6 512.5,206 507.6,216.3 		"/>
	</g>
</g>
</svg>
